<?xml version="1.0" encoding="UTF-8"?>
<svg xmlns="http://www.w3.org/2000/svg" xmlns:xlink="http://www.w3.org/1999/xlink" width="50pt" height="50pt" viewBox="0 0 50 50" version="1.1">
<g id="surface1">
<path style=" stroke:none;fill-rule:nonzero;fill:#00a4ec;fill-opacity:1;" d="M 36.777344 21.054688 L 36.777344 3.066406 C 36.777344 1.964844 35.890625 1.074219 34.785156 1.074219 L 3.066406 1.074219 C 1.964844 1.074219 1.074219 1.964844 1.074219 3.066406 L 1.074219 34.875 C 1.074219 35.976562 1.964844 36.867188 3.066406 36.867188 L 21.152344 36.867188 C 22.101562 43.671875 27.929688 48.925781 34.96875 48.925781 C 42.664062 48.925781 48.925781 42.648438 48.925781 34.929688 C 48.925781 27.832031 43.625 21.945312 36.777344 21.054688 Z M 5.058594 5.058594 L 32.78125 5.058594 L 32.78125 15.546875 L 26.113281 9.570312 C 25.574219 9.03125 24.003906 8.585938 23.066406 10.046875 L 16.476562 21.320312 L 14.539062 17.96875 C 14.082031 17.023438 12.15625 16.335938 11.140625 17.882812 L 5.066406 27.285156 L 5.066406 5.058594 Z M 6.183594 32.878906 L 12.707031 22.792969 L 18.535156 32.878906 Z M 18.761719 25.292969 L 25.265625 14.167969 L 32.773438 21.113281 C 27.609375 21.933594 23.378906 25.59375 21.738281 30.449219 Z M 34.960938 44.941406 C 29.460938 44.941406 24.992188 40.449219 24.992188 34.929688 C 24.992188 34.910156 24.992188 34.902344 24.992188 34.882812 C 24.992188 34.882812 24.992188 34.882812 24.992188 34.871094 C 25.019531 29.382812 29.480469 24.921875 34.960938 24.921875 C 40.460938 24.921875 44.929688 29.414062 44.929688 34.921875 C 44.929688 40.449219 40.460938 44.941406 34.960938 44.941406 Z M 34.960938 44.941406 "/>
<path style=" stroke:none;fill-rule:nonzero;fill:#00a4ec;fill-opacity:1;" d="M 40.148438 32.9375 L 36.960938 32.9375 L 36.960938 29.757812 C 36.960938 28.652344 36.074219 27.765625 34.96875 27.765625 C 33.867188 27.765625 32.980469 28.652344 32.980469 29.757812 L 32.980469 32.9375 L 29.796875 32.9375 C 28.691406 32.9375 27.804688 33.828125 27.804688 34.929688 C 27.804688 36.035156 28.691406 36.921875 29.796875 36.921875 L 32.980469 36.921875 L 32.980469 40.109375 C 32.980469 41.210938 33.867188 42.101562 34.96875 42.101562 C 36.074219 42.101562 36.960938 41.210938 36.960938 40.109375 L 36.960938 36.921875 L 40.148438 36.921875 C 41.25 36.921875 42.140625 36.035156 42.140625 34.929688 C 42.140625 33.828125 41.25 32.9375 40.148438 32.9375 Z M 40.148438 32.9375 "/>
<path style=" stroke:none;fill-rule:nonzero;fill:#00a4ec;fill-opacity:1;" d="M 14.902344 10.664062 C 14.902344 11.816406 13.964844 12.753906 12.8125 12.753906 C 11.660156 12.753906 10.722656 11.816406 10.722656 10.664062 C 10.722656 9.511719 11.660156 8.574219 12.8125 8.574219 C 13.964844 8.574219 14.902344 9.511719 14.902344 10.664062 Z M 14.902344 10.664062 "/>
</g>
</svg>
